{"title":"Mr and Mrs Smith 2005 Directors Cut BRRIP XviD AC3-FWOLF","uid":11017615,"size":1897256905,"categoryP":"video","categoryS":"movies","magnet":"?xt=urn:btih:ce65b1b5747a3ea3ecee715b7f30a09c3bb7033e&amp;dn=Mr+and+Mrs+Smith+2005+Directors+Cut+BRRIP+XviD+AC3-FWOLF&amp;tr=udp%3A%2F%2Ftracker.openbittorrent.com%3A80&amp;tr=udp%3A%2F%2Fopen.demonii.com%3A1337&amp;tr=udp%3A%2F%2Ftracker.coppersurfer.tk%3A6969&amp;tr=udp%3A%2F%2Fexodus.desync.com%3A6969","seeders":1,"leechers":0,"uploader":"ali1997a","files":9,"time":1410482537,"description":"SilverTorrent - Clean And Verified Torrents Download\n &lt;a href=&quot;\nhttp://i.imgur.com/ky6BGho.png&quot; rel=&quot;nofollow&quot; target=&quot;_NEW&quot;&gt;\nhttp://i.imgur.com/ky6BGho.png&lt;/a&gt;\n &lt;a href=&quot;\nhttp://i.imgur.com/FDpi0gj.jpg&quot; rel=&quot;nofollow&quot; target=&quot;_NEW&quot;&gt;\nhttp://i.imgur.com/FDpi0gj.jpg&lt;/a&gt;\n\nMr and Mrs Smith 2005 Directors Cut BRRIP XviD AC3-FWOLF\n\niMDB:http://www.imdb.com/title/tt0356910/\n\nID: 0\nFormat: MPEG-4 Visual\nFormat profile: Advanced Simple@L5\nFormat settings, BVOP: 2\nFormat settings, QPel: Yes\nFormat settings, GMC: No warppoints\nFormat settings, Matrix: Default (H.263)\nCodec ID: XVID\nCodec ID/Hint: XviD\nDuration: 2h 5mn\nBit rate: 1 540 Kbps\nWidth: 720 pixels\nHeight: 304 pixels\nDisplay aspect ratio: 2.35:1\nFrame rate: 23.976 fps\nColor space: YUV\nChroma subsampling: 4:2:0\nBit depth: 8 bits\nScan type: Progressive\nCompression mode: Lossy\nBits/(Pixel*Frame): 0.293\nStream size: 1.35 GiB (77%)\nWriting library: XviD 1.2.1 (UTC 2008-12-04)\n\nAudio\nID: 1\nFormat: AC-3\nFormat/Info: Audio Coding 3\nMode extension: CM (complete main)\nFormat settings, Endianness: Big\nCodec ID: 2000\nDuration: 2h 4mn\nBit rate mode: Constant\nBit rate: 448 Kbps\nChannel(s): 6 channels\nChannel positions: Front: L C R, Side: L R, LFE\nSampling rate: 48.0 KHz\nBit depth: 16 bits\nCompression mode: Lossy\nStream size: 398 MiB (22%)\nAlignment: Aligned on interleaves\nInterleave, duration: 65 ms (1.55 video frames)\nInterleave, preload duration: 192 ms\n\nSample: Yes\n\nSubs(srt) : English,French,Greek\n &lt;a href=&quot;\nhttp://i.imgur.com/CLsjbod.png&quot; rel=&quot;nofollow&quot; target=&quot;_NEW&quot;&gt;\nhttp://i.imgur.com/CLsjbod.png&lt;/a&gt;\n &lt;a href=&quot;\nhttp://i.imgur.com/VjsrNoQ.png&quot; rel=&quot;nofollow&quot; target=&quot;_NEW&quot;&gt;\nhttp://i.imgur.com/VjsrNoQ.png&lt;/a&gt;","torrent":{"xt":"urn:btih:ce65b1b5747a3ea3ecee715b7f30a09c3bb7033e","amp;dn":"Mr+and+Mrs+Smith+2005+Directors+Cut+BRRIP+XviD+AC3-FWOLF","amp;tr":["udp%3A%2F%2Ftracker.openbittorrent.com%3A80","udp%3A%2F%2Fopen.demonii.com%3A1337","udp%3A%2F%2Ftracker.coppersurfer.tk%3A6969","udp%3A%2F%2Fexodus.desync.com%3A6969"],"infoHash":"ce65b1b5747a3ea3ecee715b7f30a09c3bb7033e","infoHashBuffer":{"type":"Buffer","data":[206,101,177,181,116,122,62,163,236,238,113,91,127,48,160,156,59,183,3,62]},"announce":[],"urlList":[]}}